<?xml version="1.0" standalone="no"?><!DOCTYPE svg PUBLIC "-//W3C//DTD SVG 1.1//EN" "http://www.w3.org/Graphics/SVG/1.1/DTD/svg11.dtd"><svg class="icon" width="200px" height="199.80px" viewBox="0 0 1025 1024" version="1.1" xmlns="http://www.w3.org/2000/svg"><path fill="#333333" d="M874.032101 149.9439c-199.930533-199.930533-524.113669-199.930533-724.076201 0.031999s-199.930533 524.08167 0.031999 724.012203c199.962532 199.962532 524.113669 199.962532 724.044202 0.063998s199.962532-524.145668 0-724.1082zM628.31082 640.074498c-51.93458 51.93458-93.085455 106.205096-119.708727 154.747769-26.623272-48.542673-67.774147-102.813189-119.708727-154.747769s-106.205096-93.085455-154.747769-119.708727c48.542673-26.623272 102.813189-67.774147 154.747769-119.708727s93.085455-106.205096 119.708727-154.747769c26.623272 48.542673 67.774147 102.813189 119.708727 154.747769s106.205096 93.085455 154.747769 119.708727c-48.510674 26.623272-102.813189 67.806146-154.747769 119.708727z" /></svg>