<?xml version="1.0" standalone="no"?><!DOCTYPE svg PUBLIC "-//W3C//DTD SVG 1.1//EN" "http://www.w3.org/Graphics/SVG/1.1/DTD/svg11.dtd"><svg class="icon" width="200px" height="200.00px" viewBox="0 0 1024 1024" version="1.1" xmlns="http://www.w3.org/2000/svg"><path fill="#333333" d="M810.4 707.2c-60 0-107.2-52-100-113.6 6.4-51.2 51.2-88.8 103.2-88.8h203.2V333.6c0-22.4-18.4-40-40-40H48c-22.4 0-40 18.4-40 40V856c0 22.4 18.4 40 40 40h928c22.4 0 40-18.4 40-40V707.2h-205.6zM748 256.8l-48.8-150.4c-6.4-19.2-27.2-30.4-47.2-24L96 262.4l652-5.6z"  /><path fill="#333333" d="M821.6 606.4m-73.6 0a73.6 73.6 0 1 0 147.2 0 73.6 73.6 0 1 0-147.2 0Z"  /></svg>